<?xml version="1.0" standalone="no"?><!DOCTYPE svg PUBLIC "-//W3C//DTD SVG 1.1//EN" "http://www.w3.org/Graphics/SVG/1.1/DTD/svg11.dtd"><svg t="1706859852670" class="icon" viewBox="0 0 4638 1024" version="1.1" xmlns="http://www.w3.org/2000/svg" p-id="4234" width="54.3515625" height="12" xmlns:xlink="http://www.w3.org/1999/xlink"><path d="M4400.188 30.118a180.706 180.706 0 0 1 180.706 180.706v602.352a180.706 180.706 0 0 1-180.706 180.706H183.718A180.706 180.706 0 0 1 3.012 813.176V210.824A180.706 180.706 0 0 1 183.718 30.118h4216.47zM451.765 276.54c-46.261 0-84.57 11.084-114.99 33.25-30.358 22.167-45.598 52.164-45.598 89.992 0 25.118 7.229 47.405 21.806 66.921 14.456 19.516 44.574 40.659 90.292 63.368 32.949 16.263 55.417 28.31 67.343 36.14 11.987 7.892 21.384 16.867 28.25 27.107a60.235 60.235 0 0 1 10.24 34.394c0 45.538-31.924 68.247-95.834 68.247-21.022 0-43.128-3.916-66.5-11.746a178.056 178.056 0 0 1-46.983-22.95l-8.855-7.047v67.041c10.963 7.47 28.432 13.674 52.465 18.673 24.034 5 45.056 7.53 63.127 7.53 51.561 0 91.859-10.722 120.832-32.106 29.033-21.323 43.55-52.043 43.55-92.04 0-26.683-8.915-50.657-26.744-72.04-17.89-21.384-49.152-42.768-93.847-64.151-40.599-19.998-66.982-35.78-79.089-47.345a59.332 59.332 0 0 1-18.251-44.996c0-20.781 8.794-36.984 26.323-48.67 17.528-11.686 40.237-17.468 68.066-17.468 37.345 0 68.848 7.469 94.69 22.528l9.456 6.023v-64.21c-21.202-11.024-54.452-16.505-99.75-16.505z m2798.953 0c-68.066 0-121.916 21.805-161.732 65.295-39.815 43.55-59.753 102.1-59.753 175.586 0 68.247 19.516 123.663 58.549 166.25 39.032 42.526 90.895 63.789 155.587 63.789 66.26 0 119.266-21.685 158.84-65.054 39.575-43.31 59.393-101.918 59.393-175.887 0-68.187-19.275-123.603-57.946-166.13-38.611-42.586-89.57-63.849-152.938-63.849zM939.31 284.19H617.833v52.405h130.892V739.81h59.15V336.535H939.31V284.19z m209.92 0h-62.946L912.806 739.81h64.933l43.852-124.687h189.74l46.382 124.687h65.054L1149.29 284.19z m317.5 0h-73.788v455.62h58.248V419.479c0-28.311-0.603-48.128-1.807-59.453l-0.603-4.337h1.807c2.59 6.506 5.783 13.132 9.518 19.697l6.023 10 229.135 354.424h69.753V284.19h-58.248v313.224c0 27.467 0.723 47.887 2.229 61.199l0.723 5.3h-1.205a249.555 249.555 0 0 0-14.517-24.756l-4.277-6.686-222.99-348.28z m550.19 0H1886.93v455.62h125.29c72.161 0 131.131-21.263 176.91-63.85 45.78-42.526 68.669-99.087 68.669-169.682 0-67.645-22.89-121.555-68.669-161.792-42.225-37.105-94.388-57.043-156.491-59.934l-15.661-0.362z m507 0h-62.946l-173.538 455.62h64.994l43.791-124.687h189.741l46.442 124.687h65.054l-173.538-455.62z m302.502 0h-58.79v455.62h240.279v-52.104h-181.49V284.19z m801.25 0h-73.789v455.62h58.188V419.479c0-28.311-0.603-48.128-1.807-59.453l-0.543-4.337h1.808c2.59 6.506 5.782 13.132 9.517 19.697l6.023 10 229.135 354.424h69.693V284.19h-58.188v313.224c0 27.467 0.723 47.887 2.229 61.199l0.663 5.3h-1.205a249.555 249.555 0 0 0-14.457-24.756l-4.337-6.686-222.87-348.28z m654.878 0h-234.677v455.62h244.977v-52.104h-186.127V534.528h162.936v-52.104h-162.996v-145.89h175.887V284.19z m-1035.264 45.297c47.224 0 84.45 16.023 111.616 47.947 27.106 31.925 40.719 77.342 40.719 136.132 0 57.284-13.854 101.858-41.623 133.722-27.708 31.925-65.957 47.827-114.567 47.827-45.297 0-81.98-16.625-110.11-49.875-28.19-33.25-42.225-77.402-42.225-132.517 0-54.694 14.456-98.907 43.249-132.638s66.44-50.598 112.94-50.598z m-1232.655 7.048c54.332 0 98.183 14.336 131.493 42.947 33.31 28.672 49.996 71.38 49.996 128.302 0 56.801-16.264 101.014-48.67 132.577-32.467 31.564-77.584 47.345-135.47 47.345h-66.138V336.535h68.789z m-897.386 5.903c1.988 12.047 3.916 21.263 5.723 27.587l1.325 4.217 68.788 189.38h-152.937l68.247-189.44c2.048-5.542 3.975-12.89 5.662-22.046l1.686-9.638h1.506z m1374.63 0c2.048 12.047 3.975 21.263 5.782 27.587l1.326 4.217 68.788 189.38h-152.937l68.247-189.44c2.048-5.542 3.915-12.89 5.662-22.046l1.686-9.638h1.446z" p-id="4235" fill="#faad14"></path></svg>